<?xml version="1.0" standalone="no"?><!DOCTYPE svg PUBLIC "-//W3C//DTD SVG 1.1//EN" "http://www.w3.org/Graphics/SVG/1.1/DTD/svg11.dtd"><svg t="1595145919667" class="icon" viewBox="0 0 1024 1024" version="1.1" xmlns="http://www.w3.org/2000/svg" p-id="2973" xmlns:xlink="http://www.w3.org/1999/xlink" width="200" height="200"><defs><style type="text/css"></style></defs><path d="M345.365333 51.2l272.192 72.874667L890.368 197.12l85.696 148.48-18.432 68.778667 66.368 17.770666-19.946667 74.368-66.346666-17.770666-24.938667 92.949333 66.346667 17.770667-19.925334 74.346666-66.346666-17.749333-24.938667 92.949333 66.346667 17.770667-19.925334 74.368-66.346666-17.792-18.453334 68.757333-148.565333 85.802667-544.981333-145.898667-85.461334-148.458666 18.432-68.757334L0 596.309333l19.946667-74.304 68.906666 18.453334 24.96-92.949334-68.949333-18.474666 19.946667-74.346667 68.949333 18.453333 24.917333-92.970666-68.928-18.432 19.925334-74.389334 68.949333 18.474667 18.432-68.757333L345.386667 51.2z m35.648 98.410667l-116.778666 67.626666L148.8 647.68l67.306667 116.906667 429.248 114.922666 117.013333-67.562666 115.413333-430.442667-67.498666-116.970667L381.013333 149.610667z m29.738667 82.026666l332.778667 89.109334 52.352 90.666666-27.029334 100.821334-179.349333-48 19.114667-71.274667-112.149334-30.016-75.114666 279.978667 112.149333 30.016 19.114667-71.253334 179.370666 48-25.6 95.445334-90.709333 52.373333-332.8-89.088-52.181333-90.645333 89.514666-333.696 90.538667-52.437334z" fill="#FF6A00" p-id="2974"></path></svg>