<?xml version="1.0" standalone="no"?><!DOCTYPE svg PUBLIC "-//W3C//DTD SVG 1.1//EN" "http://www.w3.org/Graphics/SVG/1.1/DTD/svg11.dtd"><svg t="1595143652925" class="icon" viewBox="0 0 1024 1024" version="1.1" xmlns="http://www.w3.org/2000/svg" p-id="10226" xmlns:xlink="http://www.w3.org/1999/xlink" width="200" height="200"><defs><style type="text/css"></style></defs><path d="M284.23 795.18h-63.29a92.66 92.66 0 0 1-92.57-92.56V208a92.67 92.67 0 0 1 92.57-92.57h271.78A92.66 92.66 0 0 1 585.28 208v105.12a25.86 25.86 0 0 1-51.72 0V208a40.88 40.88 0 0 0-40.84-40.84H220.94A40.88 40.88 0 0 0 180.1 208v494.62a40.88 40.88 0 0 0 40.84 40.84h63.29a25.86 25.86 0 0 1 0 51.72z" fill="#333333" p-id="10227"></path><path d="M777.2 795.18H423.52A92.66 92.66 0 0 1 331 702.62v-233a92.67 92.67 0 0 1 92.57-92.57H777.2a92.66 92.66 0 0 1 92.56 92.57v233a92.66 92.66 0 0 1-92.56 92.56zM423.52 428.81a40.88 40.88 0 0 0-40.84 40.84v233a40.88 40.88 0 0 0 40.84 40.84H777.2a40.88 40.88 0 0 0 40.8-40.87v-233a40.88 40.88 0 0 0-40.84-40.84zM921.49 908.56h-819a25.87 25.87 0 0 1 0-51.73h819a25.87 25.87 0 0 1 0 51.73z" fill="#333333" p-id="10228"></path><path d="M567.75 564.44H455.16a25.86 25.86 0 1 1 0-51.72h112.59a25.86 25.86 0 1 1 0 51.72zM567.75 659.55H455.16a25.87 25.87 0 0 1 0-51.73h112.59a25.87 25.87 0 0 1 0 51.73zM745.56 564.44H633a25.86 25.86 0 1 1 0-51.72h112.6a25.86 25.86 0 1 1 0 51.72zM745.56 659.55H633a25.87 25.87 0 0 1 0-51.73h112.6a25.87 25.87 0 0 1 0 51.73z" fill="#FFCC07" p-id="10229"></path></svg>