<?xml version="1.0" standalone="no"?><!DOCTYPE svg PUBLIC "-//W3C//DTD SVG 1.1//EN" "http://www.w3.org/Graphics/SVG/1.1/DTD/svg11.dtd"><svg t="1595144359321" class="icon" viewBox="0 0 1024 1024" version="1.1" xmlns="http://www.w3.org/2000/svg" p-id="16563" xmlns:xlink="http://www.w3.org/1999/xlink" width="200" height="200"><defs><style type="text/css"></style></defs><path d="M238.976 563.413333v-190.165333l78.016-42.666667v275.84l43.050667 23.765334v0.085333l35.136 19.413333V289.28L512 224.853333l116.864 64.426667v360.384l78.144-43.2V330.581333l78.016 42.666667v0.426667l54.293333 29.994666v-72.554666L512 150.186667l-327.317333 180.906666v116.48L106.666667 404.522667V288L512 64l405.333333 224v448L512 960 106.666667 736V490.752h0.042666v-0.298667l132.266667 72.96z m546.048-103.594666v190.72l-29.824 15.744L512 800.426667l-151.957333-83.797334-20.394667-11.264-80.981333-44.672v-0.085333L184.682667 619.733333v73.173334L512 873.770667l327.317333-180.906667v-116.778667l77.952 42.986667v-86.186667l-132.266666-73.088z m-312.021333-127.168v360.021333L512 714.24l38.997333-21.546667V332.629333L512 310.933333l-38.997333 21.717334z" fill="#F15533" p-id="16564"></path></svg>