<?xml version="1.0" standalone="no"?><!DOCTYPE svg PUBLIC "-//W3C//DTD SVG 1.1//EN" "http://www.w3.org/Graphics/SVG/1.1/DTD/svg11.dtd"><svg t="1595143512942" class="icon" viewBox="0 0 1024 1024" version="1.1" xmlns="http://www.w3.org/2000/svg" p-id="9504" xmlns:xlink="http://www.w3.org/1999/xlink" width="200" height="200"><defs><style type="text/css"></style></defs><path d="M949.76 947.712H74.24a48.64 48.64 0 1 1 0-97.28h875.008c27.136 0 48.64 22.016 48.64 48.64 0.512 27.136-21.504 48.64-48.128 48.64z" fill="" p-id="9505"></path><path d="M645.12 947.712H140.8a48.64 48.64 0 0 1-48.64-48.64V124.928c0-27.136 22.016-48.64 48.64-48.64h504.32c27.136 0 48.64 22.016 48.64 48.64v774.144c0.512 27.136-21.504 48.64-48.64 48.64zM189.952 849.92h406.528V174.08H189.952v675.84z" fill="" p-id="9506"></path><path d="M870.912 947.712H645.12a48.64 48.64 0 0 1-48.64-48.64V420.864c0-27.136 22.016-48.64 48.64-48.64h225.792c27.136 0 48.64 22.016 48.64 48.64v478.208c0.512 27.136-21.504 48.64-48.64 48.64z m-176.64-97.792h128V469.504h-128v380.416zM470.528 347.648h-215.04a48.64 48.64 0 1 1 0-97.28h215.04a48.64 48.64 0 1 1 0 97.28zM470.528 518.656h-215.04a48.64 48.64 0 1 1 0-97.28h215.04a48.64 48.64 0 1 1 0 97.28zM470.528 688.128h-215.04a48.64 48.64 0 1 1 0-97.28h215.04a48.64 48.64 0 1 1 0 97.28z" fill="" p-id="9507"></path></svg>