<?xml version="1.0" standalone="no"?><!DOCTYPE svg PUBLIC "-//W3C//DTD SVG 1.1//EN" "http://www.w3.org/Graphics/SVG/1.1/DTD/svg11.dtd"><svg t="1595143792192" class="icon" viewBox="0 0 1024 1024" version="1.1" xmlns="http://www.w3.org/2000/svg" p-id="12611" xmlns:xlink="http://www.w3.org/1999/xlink" width="200" height="200"><defs><style type="text/css"></style></defs><path d="M643.5328 529.0752h-212.5568l-109.2096 109.2352-0.128-0.1536v302.7968h321.8944zM365.6192 463.7184c85.4016-19.9168 149.2224-96.128 149.2224-187.6224a193.024 193.024 0 0 0-193.0496-193.0496h-0.128v386.0992h0.128a192 192 0 0 0 43.8272-5.4272z" fill="#3BAFDA" p-id="12612"></path><path d="M307.9936 84.4288c-100.0448 7.1936-179.2768 89.7536-179.2768 191.6672 0 90.1632 62.08 165.2224 145.6384 186.4448 1.2288 0.3072 2.3296 0.896 3.584 1.152a192.3072 192.3072 0 0 0 43.6992 5.4272V83.072c-4.6592 0-9.0624 1.0496-13.6448 1.3568zM212.5568 529.0752H0v411.8784h321.6384V638.1568l-57.7792-57.7792z" fill="#7AC3E1" p-id="12613"></path><path d="M1021.3376 641.0752a10.2912 10.2912 0 0 0-6.9376-4.1472l-60.3648-9.216c5.632 18.0992 8.6528 37.3248 8.6528 57.2928l-0.0512 0.6656a192.896 192.896 0 0 0-8.6016-56.576l-0.3072-0.0512a199.424 199.424 0 0 0-13.568-32.512l0.1792-0.256c3.968-5.504 9.8816-13.184 17.7152-23.1168 7.9616-10.0608 13.568-17.408 16.896-22.0416a12.8 12.8 0 0 0 2.6624-7.6032 10.624 10.624 0 0 0-2.3296-7.296c-7.9616-11.264-26.1632-30.0544-54.7072-56.3456a12.8256 12.8256 0 0 0-8.2688-3.3024 10.8288 10.8288 0 0 0-7.9616 2.9696l-46.592 35.0976-0.4864 0.384a205.2608 205.2608 0 0 0-29.824-12.2624l-0.128-0.768-9.1648-60.2368c-0.2304-2.8672-1.4848-5.248-3.7888-7.1168s-5.0176-2.816-8.1152-2.816h-73.6c-6.4 0-10.368 3.0976-11.9296 9.2928-2.8416 10.9568-6.016 31.3344-9.5488 61.0304l-0.0768 0.6144a187.7248 187.7248 0 0 0-30.1568 12.5952l-0.512-0.384-45.2608-35.0976a14.1568 14.1568 0 0 0-8.6272-3.3024c-4.8384 0-15.3088 7.9104-31.3344 23.7056s-26.9056 27.6736-32.64 35.6352a13.824 13.824 0 0 0-2.9696 7.6288c0 2.6624 1.1008 5.2992 3.3024 7.9616a754.2528 754.2528 0 0 1 35.3024 45.5168l0.1792 0.2304a163.6096 163.6096 0 0 0-12.928 30.4896l-0.1536 0.0256-61.4912 9.2672a9.8048 9.8048 0 0 0-6.2976 4.3008 12.8 12.8 0 0 0-2.6624 7.6288v73.6c0 2.8672 0.8704 5.4784 2.6624 7.7824a10.2912 10.2912 0 0 0 6.9376 4.1472l60.288 8.9088 0.384 0.0512c3.072 10.8288 7.6288 21.76 13.568 32.8192l-0.1792 0.2304c-3.968 5.504-9.856 13.184-17.7152 23.1424-7.9616 10.0608-13.568 17.408-16.896 22.0416a12.8 12.8 0 0 0-0.3328 15.2576c8.6272 11.9296 26.8544 30.4896 54.7072 55.68a12.032 12.032 0 0 0 16.5632 0.6912l46.2592-35.1232 0.4864-0.3584c9.0624 4.6336 18.9952 8.7296 29.8496 12.2624l0.1024 0.7424 9.1648 60.2624a9.9328 9.9328 0 0 0 3.7888 7.1168c2.3296 1.8688 5.0176 2.816 8.1152 2.816h73.6c6.4 0 10.368-3.0976 11.9296-9.2672 2.8416-10.9568 6.016-31.36 9.5488-61.056l0.0768-0.6144a187.7248 187.7248 0 0 0 30.1568-12.5952l0.512 0.384c0.3328-0.1792 0.64-0.4352 0.9728-0.5888l44.2624 34.6624a16.1024 16.1024 0 0 0 8.6272 2.9696c4.8384 0 15.2576-7.8592 31.1552-23.5264 15.9232-15.6928 26.8544-27.6224 32.8192-35.7888 1.9968-2.2016 2.9696-4.7616 2.9696-7.6288s-1.1008-5.632-3.3024-8.2944a830.7456 830.7456 0 0 1-35.072-45.2096c4.2752-8.0384 8.448-17.7664 12.5184-29.3376l0.1536-0.0256c0.1536-0.4608 0.1792-0.9472 0.3328-1.408l60.8256-9.1904a10.2144 10.2144 0 0 0 6.6304-4.3008 13.312 13.312 0 0 0 2.688-7.7568v-73.6a12.544 12.544 0 0 0-2.6624-7.7824z m-251.9296 192.4864a147.2 147.2 0 1 1 0-294.4 147.2 147.2 0 0 1 0 294.4z" fill="#CCCCCC" p-id="12614"></path><path d="M769.408 539.1616a147.2 147.2 0 1 0 0 294.4 147.2 147.2 0 0 0 0-294.4z m60.0064 207.2064c-16.5632 16.5632-36.5824 24.8576-60.0064 24.8576s-43.4176-8.2944-60.0064-24.8576-24.8576-36.5824-24.8576-60.0064 8.2944-43.4176 24.8576-60.0064 36.5824-24.8576 60.0064-24.8576 43.4176 8.2944 60.0064 24.8576 24.8576 36.5824 24.8576 60.0064-8.2944 43.4176-24.8576 60.0064z" fill="#F8FCFF" p-id="12615"></path></svg>