<?xml version="1.0" standalone="no"?><!DOCTYPE svg PUBLIC "-//W3C//DTD SVG 1.1//EN" "http://www.w3.org/Graphics/SVG/1.1/DTD/svg11.dtd"><svg t="1595143862835" class="icon" viewBox="0 0 1024 1024" version="1.1" xmlns="http://www.w3.org/2000/svg" p-id="13556" xmlns:xlink="http://www.w3.org/1999/xlink" width="200" height="200"><defs><style type="text/css"></style></defs><path d="M764.512 816v-64H816v-608h-480v75.616h-64V144a64 64 0 0 1 64-64h480a64 64 0 0 1 64 64v608a64 64 0 0 1-64 64h-51.488z m0 0v-64H816v-608h-480v75.616h-64V144a64 64 0 0 1 64-64h480a64 64 0 0 1 64 64v608a64 64 0 0 1-64 64h-51.488z" fill="#2B82D8" p-id="13557"></path><path d="M339.2 352h409.6a51.2 51.2 0 0 1 51.2 51.2v505.6a51.2 51.2 0 0 1-51.2 51.2H339.2A51.2 51.2 0 0 1 288 908.8V403.2a51.2 51.2 0 0 1 51.2-51.2z" fill="#CAE705" p-id="13558"></path><path d="M304 480a32 32 0 0 1 0-64h320a32 32 0 0 1 0 64h-320zM304 616a32 32 0 0 1 0-64h128a32 32 0 0 1 0 64h-128z" fill="#2B82D8" p-id="13559"></path><path d="M224 256v640h512V256H224z m0-64h512a64 64 0 0 1 64 64v640a64 64 0 0 1-64 64H224a64 64 0 0 1-64-64V256a64 64 0 0 1 64-64z" fill="#2B82D8" p-id="13560"></path></svg>