<?xml version="1.0" standalone="no"?><!DOCTYPE svg PUBLIC "-//W3C//DTD SVG 1.1//EN" "http://www.w3.org/Graphics/SVG/1.1/DTD/svg11.dtd"><svg t="1595144626297" class="icon" viewBox="0 0 1024 1024" version="1.1" xmlns="http://www.w3.org/2000/svg" p-id="3115" xmlns:xlink="http://www.w3.org/1999/xlink" width="200" height="200"><defs><style type="text/css"></style></defs><path d="M72.66 911.992h887.336v87.996H72.66z" fill="#E6E9ED" p-id="3116"></path><path d="M938.684 959.992c0 11.778 9.5 21.308 21.312 21.308v-42.62a21.278 21.278 0 0 0-21.312 21.312z" fill="#CCD1D9" p-id="3117"></path><path d="M103.752 938.868h856.244c11.75 0 21.312-9.532 21.312-21.312V21.34c0-11.782-9.562-21.328-21.312-21.328H128.002c-47.124 0-85.31 38.204-85.31 85.326V959.994c0 35.34 28.656 63.996 63.998 63.996h853.306c11.75 0 21.312-9.562 21.312-21.312 0-11.812-9.562-21.376-21.312-21.376H106.69c-11.782 0-21.344-9.562-21.344-21.308 0-10.752 8.03-19.69 18.406-21.126z" fill="#ED5564" p-id="3118"></path><path d="M959.996 0.012h-42.686c11.81 0 21.374 9.546 21.374 21.328v896.214c0 11.782-9.562 21.312-21.374 21.312h42.686c11.75 0 21.312-9.532 21.312-21.312V21.34c0-11.78-9.562-21.328-21.312-21.328z" fill="#FFFFFF" opacity=".2" p-id="3119"></path><path d="M511.992 682.684a21.3 21.3 0 0 0-21.312 21.312c-0.032 11.782 9.532 21.312 21.312 21.312s21.344-9.532 21.344-21.312-9.562-21.312-21.344-21.312zM426.65 682.684a21.14 21.14 0 0 0-13.376 4.718v-0.032c-0.062 0.062-6.188 4.688-13.936 6.876-9.094 2.624-15.688 1-22.094-5.376-17.406-17.312-40-23.062-63.624-16.124-15.844 4.624-27.062 13.562-28.5 14.75 0 0.032-0.032 0.062-0.032 0.062h-0.032c-4.718 3.938-7.718 9.812-7.718 16.438 0 11.782 9.562 21.312 21.312 21.312 5.188 0 9.938-1.812 13.624-4.876 0.062-0.062 5.876-4.562 13.31-6.75 8.718-2.532 15.156-0.938 21.532 5.438 12.594 12.5 27.968 19 44.594 19 6.312 0 12.81-0.938 19.404-2.844 16.188-4.656 27.688-13.656 28.938-14.656 4.844-3.938 7.938-9.906 7.938-16.624 0.004-11.782-9.528-21.312-21.34-21.312zM738.94 687.558c-0.062 0-0.062-0.032-0.062-0.062-1.5-1.188-12.686-10.124-28.498-14.75-23.624-6.938-46.25-1.188-63.624 16.124-6.188 6.188-12.562 7.876-21.188 5.624-8.376-2.124-14.938-7.188-15-7.218l0.124 0.094v0.032c-3.624-2.968-8.31-4.718-13.374-4.718-11.75 0-21.312 9.532-21.312 21.312 0 6.718 3.124 12.688 7.938 16.624 1.25 1 12.75 10 28.936 14.656 6.562 1.906 13.062 2.844 19.376 2.844 16.624 0 32.062-6.5 44.624-19 6.124-6.156 12.312-7.844 20.624-5.688 8.062 2.124 14.312 7.062 14.376 7.124l-0.124-0.062a21.484 21.484 0 0 0 13.562 4.812 21.28 21.28 0 0 0 21.31-21.312c-0.002-6.622-3.002-12.498-7.688-16.436z m-27.248 32.876h0.062-0.062zM511.992 213.336c-11.782 0-21.312 9.562-21.312 21.342 0 11.782 9.532 21.328 21.312 21.328s21.344-9.546 21.344-21.328c0-11.78-9.562-21.342-21.344-21.342zM597.318 256.006c5.062 0 9.748-1.782 13.374-4.734v0.016c0.062-0.046 6.188-4.656 13.938-6.89 9.124-2.61 15.75-1 22.124 5.39 12.562 12.532 27.876 19 44.312 19 6.312 0 12.75-0.954 19.312-2.86 15.876-4.64 27.06-13.594 28.498-14.782 0 0 0-0.016 0.062-0.032v-0.016c4.688-3.922 7.75-9.828 7.75-16.422 0-11.78-9.562-21.342-21.374-21.342-5.188 0-9.938 1.844-13.624 4.906 0 0.046-5.876 4.546-13.312 6.734-8.688 2.546-15.124 0.922-21.5-5.422-17.376-17.28-40.124-23.014-64-16.156-16.186 4.64-27.686 13.656-28.936 14.67-4.812 3.922-7.938 9.89-7.938 16.608 0.002 11.786 9.564 21.332 21.314 21.332zM440.056 218.07c-1.25-1.016-12.75-10.03-28.938-14.67-23.904-6.876-46.624-1.124-63.998 16.156-6.156 6.14-12.344 7.844-20.624 5.672-8.03-2.11-14.28-7.046-14.342-7.094l0.062 0.062a21.256 21.256 0 0 0-13.532-4.86c-11.782 0-21.344 9.562-21.344 21.342 0 6.594 3 12.5 7.718 16.422 0 0 0.032 0.016 0.032 0.032 0 0 0 0.016 0.032 0.016 1.406 1.172 12.624 10.124 28.5 14.782 6.532 1.906 12.998 2.86 19.28 2.86 16.468 0 31.75-6.468 44.344-19 6.188-6.188 12.532-7.86 21.218-5.624 8.374 2.156 14.874 7.172 14.936 7.234l-0.124-0.11v-0.016a21.224 21.224 0 0 0 13.376 4.734c11.812 0 21.344-9.546 21.344-21.328a21.304 21.304 0 0 0-7.94-16.61z m-127.808 0.156l0.032 0.016-0.032-0.016z" fill="#DA4453" p-id="3120"></path><path d="M298.654 384.004c-6.468 0-12.25 2.906-16.156 7.452l-47.842 47.828-47.782-47.812c-3.938-4.562-9.718-7.468-16.218-7.468-11.748 0-21.31 9.546-21.31 21.328v127.998c0 11.796 9.562 21.36 21.31 21.36 11.812 0 21.344-9.562 21.344-21.36v-76.374l27.594 27.578a21.218 21.218 0 0 0 15.062 6.25c5.906 0 11.248-2.39 15.092-6.25l27.594-27.578v76.374c0 11.796 9.562 21.36 21.312 21.36 11.812 0 21.344-9.562 21.344-21.36v-127.998c0-11.782-9.532-21.328-21.344-21.328zM682.692 405.332c0-11.782-9.562-21.328-21.376-21.328-11.75 0-21.312 9.546-21.312 21.328v69.076l-68.936-82.732a21.374 21.374 0 0 0-16.436-7.67c-11.734 0-21.296 9.546-21.296 21.328v127.998c0 11.796 9.562 21.36 21.296 21.36 11.81 0 21.374-9.562 21.374-21.36v-69.076l68.936 82.748c3.938 4.688 9.812 7.688 16.376 7.688 11.812 0 21.376-9.562 21.376-21.36l-0.062-0.016v-127.95c-0.004-0.02 0.06-0.02 0.06-0.034zM874.688 405.332c0-11.782-9.562-21.328-21.376-21.328-11.75 0-21.312 9.546-21.312 21.328V480c0 17.64-14.376 32-32 32s-32-14.36-32-32v-74.638-0.032c0-11.782-9.56-21.328-21.31-21.328-11.812 0-21.374 9.546-21.374 21.328V480c0 41.234 33.436 74.686 74.684 74.686 41.25 0 74.624-33.454 74.624-74.686v-74.638c0-0.016 0.064-0.016 0.064-0.03zM469.338 426.674c11.782 0 21.31-9.562 21.31-21.344s-9.53-21.328-21.31-21.328h-85.342c-11.782 0-21.312 9.546-21.312 21.328h-0.032v127.998h0.032c0 11.796 9.532 21.36 21.312 21.36h85.342c11.782 0 21.31-9.562 21.31-21.36 0-11.782-9.53-21.328-21.31-21.328h-64v-21.328h42.656c11.782 0 21.344-9.562 21.344-21.342 0-11.782-9.562-21.328-21.344-21.328h-42.656v-21.328h64z" fill="#FFCE54" p-id="3121"></path></svg>