<?xml version="1.0" standalone="no"?><!DOCTYPE svg PUBLIC "-//W3C//DTD SVG 1.1//EN" "http://www.w3.org/Graphics/SVG/1.1/DTD/svg11.dtd"><svg t="1595143273984" class="icon" viewBox="0 0 1024 1024" version="1.1" xmlns="http://www.w3.org/2000/svg" p-id="2593" xmlns:xlink="http://www.w3.org/1999/xlink" width="200" height="200"><defs><style type="text/css"></style></defs><path d="M256 256v544h576V256H256z m416 128H352s-32 0-32-32c0 0 0-32 32-32h320s32 0 32 32-32 32-32 32z" fill="#5FFFBA" p-id="2594"></path><path d="M832 832s0 64-64 64H416s-64 0-64-64h480zM832 192H352s0-64 64-64h352s64 0 64 64z" fill="#FFD561" p-id="2595"></path><path d="M672 288H352c-41.6 0-64 32.96-64 64 0 41.6 32.96 64 64 64h320c31.04 0 64-22.4 64-64s-32.96-64-64-64z m-320 96s-32 0-32-32c0 0 0-32 32-32h320s32 0 32 32-32 32-32 32H352z" fill="#2D2220" p-id="2596"></path><path d="M704 352c0 32-32 32-32 32h-224c-17.6 0-32-14.4-32-32s14.4-32 32-32h224s32 0 32 32z" fill="#FFD561" p-id="2597"></path><path d="M848 544c8.96 0 16-7.072 16-16V192c0-70.4-57.28-96-96-96H256C185.6 96 160 153.28 160 192v640c0 70.4 57.28 96 96 96h512c70.4 0 96-57.28 96-96v-240c0-8.96-7.04-16-16-16s-16 7.04-16 16V832s0 64-64 64H256s-64 0-64-64h528c8.96 0 16-7.04 16-16s-7.04-16-16-16H192V224h640v304c0 8.928 7.04 16 16 16zM192 192s0-64 64-64h512s64 0 64 64H192z" fill="#2D2220" p-id="2598"></path><path d="M608 464a16 16 0 0 0-16-16h-288a16 16 0 0 0 0 32h288a16 16 0 0 0 16-16zM736 464a16 16 0 0 0-16-16h-64a16 16 0 0 0 0 32h64a16 16 0 0 0 16-16z" fill="#2D2220" p-id="2599"></path></svg>