<?xml version="1.0" standalone="no"?><!DOCTYPE svg PUBLIC "-//W3C//DTD SVG 1.1//EN" "http://www.w3.org/Graphics/SVG/1.1/DTD/svg11.dtd"><svg t="1595144056369" class="icon" viewBox="0 0 1077 1024" version="1.1" xmlns="http://www.w3.org/2000/svg" p-id="15579" xmlns:xlink="http://www.w3.org/1999/xlink" width="210.3515625" height="200"><defs><style type="text/css"></style></defs><path d="M1027.792593 530.204444l-82.678519 427.045926c-6.068148 37.167407-37.925926 65.232593-75.851852 65.232593H207.075556c-37.925926 0-69.783704-27.306667-75.851852-65.232593L48.545185 530.204444" fill="#FFFFFF" p-id="15580"></path><path d="M1027.792593 530.204444l-7.585186 40.201482-74.334814 386.844444c-6.068148 37.167407-37.925926 65.232593-75.851852 65.232593H207.834074c-37.925926 0-69.783704-27.306667-75.851852-65.232593l-74.334815-386.844444-7.585185-40.201482h977.730371z" fill="#4988FD" p-id="15581"></path><path d="M1027.792593 530.204444l-12.136297 57.647408-953.457777 0.758518-13.653334-58.405926z" fill="#2767F4" p-id="15582"></path><path d="M79.644444 530.204444H53.854815C24.272593 530.204444 0 508.207407 0 481.659259v-52.337778c0-26.548148 24.272593-48.545185 53.854815-48.545185h968.628148c29.582222 0 53.854815 21.997037 53.854815 48.545185v52.337778c0 26.548148-24.272593 48.545185-53.854815 48.545185h-25.78963" fill="#6097FD" p-id="15583"></path><path d="M254.862222 643.223704c-2.275556-11.377778-12.894815-18.962963-24.272592-16.687408-11.377778 2.275556-18.962963 12.894815-16.687408 24.272593l50.820741 257.896296c5.30963 27.306667 46.26963 18.962963 40.96-8.343704l-50.820741-257.137777zM395.946667 644.740741c-1.517037-11.377778-12.136296-19.721481-23.514074-17.445926-11.377778 1.517037-19.721481 12.136296-17.445926 23.514074 7.585185 53.854815 28.823704 202.524444 36.408889 257.896296 3.792593 27.306667 45.511111 21.238519 41.718518-6.068148-3.792593-24.272593-32.616296-228.314074-37.167407-257.896296zM517.30963 647.016296v257.896297c0 27.306667 41.718519 28.065185 41.718518 0v-257.896297c0-27.306667-41.718519-27.306667-41.718518 0zM680.391111 644.740741c-18.962963 133.499259-10.619259 72.817778-36.408889 257.896296-3.792593 27.306667 37.925926 33.374815 41.718519 6.068148l21.238518-150.186666c0.758519-3.034074 0-2.275556 0.758519-5.30963l14.411852-102.4c3.034074-28.065185-37.925926-34.133333-41.718519-6.068148zM821.475556 643.223704c-6.826667 34.891852-48.545185 245.76-50.820741 258.654815-5.30963 27.306667 35.65037 34.891852 40.96 8.343703l50.820741-257.896296c5.30963-28.065185-35.65037-36.408889-40.96-9.102222z" fill="#FFFFFF" p-id="15584"></path><path d="M307.2 293.546667V201.007407h-36.408889c-10.619259 0-20.48-1.517037-29.582222-4.551111H108.468148c-11.377778 0-20.48 9.102222-20.48 20.48V273.066667c0 11.377778 9.102222 20.48 20.48 20.48h198.731852zM585.576296 195.697778H436.906667c-8.343704 3.034074-18.204444 4.551111-27.306667 4.551111h-25.031111v92.539259h201.765926c11.377778 0 20.48-9.102222 20.48-20.48v-56.13037c-0.758519-11.377778-9.860741-20.48-21.238519-20.48z" fill="#6097FD" p-id="15585"></path><path d="M383.81037 293.546667h190.388149v33.374814H383.81037v54.613334h190.388149V293.546667H383.81037zM307.2 326.921481H119.087407v-33.374814h188.112593-188.112593v87.988148h188.112593z" fill="#4988FD" p-id="15586"></path><path d="M119.087407 293.546667h188.112593v34.133333H119.087407zM383.81037 293.546667h190.388149v34.133333H383.81037z" fill="#2767F4" p-id="15587"></path><path d="M345.884444 200.248889h-39.442963v92.539259h77.368889V200.248889h-37.925926zM307.2 326.921481v54.613334h76.61037v-54.613334z" fill="#DFECFD" p-id="15588"></path><path d="M307.2 326.921481h76.61037v-33.374814H307.2z" fill="#C5DCFA" p-id="15589"></path><path d="M307.2 200.248889h38.684444c-12.136296 0-21.238519-9.860741-21.238518-21.238519v-62.957037c0-25.031111 10.619259-47.786667 28.065185-62.957037C336.023704 25.78963 304.924444 6.826667 270.032593 6.826667c-53.096296 0-97.09037 43.235556-97.090371 97.09037 0 43.235556 28.065185 79.644444 66.74963 91.780741 9.102222 3.034074 19.721481 4.551111 29.582222 4.551111h37.925926zM216.936296 103.917037c0-29.582222 24.272593-53.854815 53.854815-53.854815 29.582222 0 53.854815 24.272593 53.854815 53.854815v53.854815h-53.854815c-30.340741 0-53.854815-24.272593-53.854815-53.854815z" fill="#DFECFD" p-id="15590"></path><path d="M324.645926 116.053333v62.957037c0 12.136296 9.860741 21.238519 21.238518 21.238519h62.957037c9.860741 0 18.962963-1.517037 27.306667-4.551111 33.374815-11.377778 56.888889-42.477037 56.888889-79.644445 0-46.26963-37.925926-84.195556-84.195556-84.195555-21.238519 0-40.96 8.343704-56.13037 21.238518-17.445926 15.17037-28.065185 37.925926-28.065185 62.957037z m42.477037 0c0-22.755556 18.962963-41.718519 41.718518-41.718518s41.718519 18.962963 41.718519 41.718518-18.962963 41.718519-41.718519 41.718519h-41.718518v-41.718519z" fill="#DFECFD" p-id="15591"></path><path d="M960.284444 257.137778h-98.607407c-6.068148 2.275556-12.136296 3.034074-18.204444 3.034074H826.785185v61.44h133.499259c7.585185 0 13.653333-6.068148 13.653334-13.653333v-37.167408c0-7.585185-6.068148-13.653333-13.653334-13.653333zM775.964444 321.611852v-61.44h-24.272592c-6.826667 0-13.653333-0.758519-19.721482-3.034074H643.982222c-7.585185 0-13.653333 6.068148-13.653333 13.653333v37.167408c0 7.585185 6.068148 13.653333 13.653333 13.653333h131.982222z" fill="#6097FD" p-id="15592"></path><path d="M826.785185 321.611852h125.914074v22.755555H826.785185v37.167408h125.914074v-59.922963H826.785185zM775.964444 344.367407H651.567407v-22.755555h124.397037-124.397037v59.922963h124.397037z" fill="#4988FD" p-id="15593"></path><path d="M826.785185 321.611852h125.914074v22.755555H826.785185zM651.567407 321.611852h124.397037v22.755555H651.567407z" fill="#2767F4" p-id="15594"></path><path d="M801.754074 260.93037h-25.78963v60.681482h50.820741v-60.681482zM775.964444 344.367407h50.820741v37.167408h-50.820741z" fill="#DFECFD" p-id="15595"></path><path d="M775.964444 344.367407h50.820741v-22.755555h-50.820741z" fill="#C5DCFA" p-id="15596"></path><path d="M775.964444 260.93037h25.78963c-7.585185 0-14.411852-6.068148-14.411852-14.411851V204.8c0-16.687407 7.585185-31.099259 18.962963-41.718519-11.377778-18.204444-31.099259-30.340741-54.613333-30.34074-35.65037 0-63.715556 28.823704-63.715556 63.715555 0 28.065185 18.962963 52.337778 43.994074 60.681482 6.068148 2.275556 12.894815 3.034074 19.721482 3.034074h24.272592v0.758518z m-59.922963-64.474074c0-19.721481 15.928889-35.65037 35.650371-35.65037s35.65037 15.928889 35.65037 35.65037v35.650371h-35.65037c-19.721481 0-35.65037-15.928889-35.650371-35.650371z" fill="#DFECFD" p-id="15597"></path><path d="M787.342222 204.8v41.718519c0 7.585185 6.068148 14.411852 14.411852 14.411851h41.718519c6.068148 0 12.894815-0.758519 18.204444-3.034074 21.997037-7.585185 37.925926-28.065185 37.925926-53.096296 0-31.099259-25.031111-56.13037-56.13037-56.13037-14.411852 0-27.306667 5.30963-37.167408 14.411851-11.377778 10.619259-18.962963 25.031111-18.962963 41.718519z m28.823704 0c0-15.17037 12.136296-27.306667 27.306667-27.306667s27.306667 12.136296 27.306666 27.306667-12.136296 27.306667-27.306666 27.306667h-27.306667V204.8z" fill="#DFECFD" p-id="15598"></path></svg>