<?xml version="1.0" standalone="no"?><!DOCTYPE svg PUBLIC "-//W3C//DTD SVG 1.1//EN" "http://www.w3.org/Graphics/SVG/1.1/DTD/svg11.dtd"><svg t="1595144729757" class="icon" viewBox="0 0 1024 1024" version="1.1" xmlns="http://www.w3.org/2000/svg" p-id="3941" xmlns:xlink="http://www.w3.org/1999/xlink" width="200" height="200"><defs><style type="text/css"></style></defs><path d="M271.07 170.68h560.922v767.996H271.07z" fill="#E9573F" p-id="3942"></path><path d="M492.346 179.836l-291.68 64.28 14.126-134.184 208.336-45.92z" fill="#F5F7FA" p-id="3943"></path><path d="M577.438 466.89l-333.306 73.486-73.466-333.338 333.304-73.466z" fill="#4FC2E9" p-id="3944"></path><path d="M234.384 106.166c2.53 11.516 13.936 18.78 25.436 16.25 11.5-2.546 18.782-13.922 16.218-25.422-0.032-0.188-0.094-0.36-0.124-0.532l-41.624 9.172 0.094 0.532z" fill="#E6E9ED" p-id="3945"></path><path d="M276.04 96.996c2.562 11.5 13.938 18.766 25.438 16.234 11.498-2.532 18.78-13.922 16.248-25.422-0.032-0.188-0.094-0.344-0.156-0.532l-41.592 9.172c0.03 0.188 0.03 0.36 0.062 0.548z" fill="#E6E9ED" p-id="3946"></path><path d="M317.724 87.808c2.532 11.5 13.906 18.766 25.406 16.234 11.532-2.532 18.782-13.922 16.25-25.422-0.032-0.172-0.094-0.344-0.124-0.516l-41.624 9.172c0.03 0.172 0.062 0.344 0.092 0.532z" fill="#E6E9ED" p-id="3947"></path><path d="M359.38 78.62c2.532 11.5 13.936 18.782 25.436 16.234 11.5-2.532 18.782-13.906 16.218-25.42-0.032-0.172-0.094-0.344-0.124-0.516l-41.624 9.17 0.094 0.532z" fill="#E6E9ED" p-id="3948"></path><path d="M813.18 412.594c-51.716 205.652-158.496 356.084-238.46 335.96-79.966-20.094-102.874-203.12-51.156-408.8C575.25 134.088 639.998-26.908 762.026 3.78s102.904 203.148 51.154 408.814z" fill="#FFCE54" p-id="3949"></path><path d="M694.372 272.74c-2.876 11.42-14.438 18.358-25.876 15.484s-18.376-14.468-15.5-25.89c2.876-11.436 14.5-18.358 25.906-15.484 11.406 2.86 18.344 14.452 15.47 25.89z" p-id="3950"></path><path d="M545.062 260.116c18.218 10.672 50.5 23.374 105.246 28.656l4.094-42.466c-66.778-6.438-91.402-24.86-96.09-28.906-4.562 13.81-8.936 28.076-13.25 42.716zM605.5 102.308c-6.406 11.984-12.562 24.828-18.5 38.452 20.154 9.64 54.872 20.062 94.558 23.876v-0.016c10.312 1 20.124-5.64 22.718-16.016 2.844-11.42-4.062-23.014-15.5-25.89a19.778 19.778 0 0 0-3.156-0.514v-0.032c-37.562-3.626-66.934-13.61-80.12-19.86z" fill="#F6BB42" p-id="3951"></path><path d="M917.3 1023.984l-42.62-767.978h-0.062c0-11.782-9.532-21.328-21.312-21.328s-21.344 9.546-21.344 21.328c0-11.782-9.532-21.328-21.344-21.328-11.75 0-21.312 9.546-21.312 21.328 0-11.782-9.562-21.328-21.342-21.328-11.782 0-21.344 9.546-21.344 21.328 0-11.782-9.53-21.328-21.31-21.328s-21.344 9.546-21.344 21.328c0-11.782-9.532-21.328-21.344-21.328-11.75 0-21.312 9.546-21.312 21.328 0-11.782-9.562-21.328-21.342-21.328-11.782 0-21.344 9.546-21.344 21.328 0-11.782-9.532-21.328-21.31-21.328-11.782 0-21.344 9.546-21.344 21.328 0-11.782-9.532-21.328-21.344-21.328-11.75 0-21.312 9.546-21.312 21.328 0-11.782-9.562-21.328-21.344-21.328-11.78 0-21.31 9.546-21.31 21.328 0-11.782-9.562-21.328-21.344-21.328s-21.344 9.546-21.344 21.328c0-11.782-9.532-21.328-21.31-21.328-11.782 0-21.344 9.546-21.344 21.328 0-11.782-9.562-21.328-21.344-21.328s-21.31 9.546-21.31 21.328c0-11.782-9.562-21.328-21.344-21.328s-21.344 9.546-21.344 21.328c0-11.782-9.532-21.328-21.31-21.328-11.782 0-21.344 9.546-21.344 21.328 0-11.782-9.562-21.328-21.344-21.328s-21.31 9.546-21.31 21.328c0-11.782-9.562-21.328-21.344-21.328s-21.344 9.546-21.344 21.328c0-11.782-9.532-21.328-21.312-21.328-11.78 0-21.342 9.546-21.342 21.328 0 0.094 0 0.172 0.032 0.25L106.7 1023.984h810.6z" fill="#FC6E51" p-id="3952"></path><path d="M106.7 1023.984h810.6l-3.53-63.998H110.23z" fill="#E9573F" p-id="3953"></path></svg>