<?xml version="1.0" standalone="no"?><!DOCTYPE svg PUBLIC "-//W3C//DTD SVG 1.1//EN" "http://www.w3.org/Graphics/SVG/1.1/DTD/svg11.dtd"><svg t="1595143957417" class="icon" viewBox="0 0 1024 1024" version="1.1" xmlns="http://www.w3.org/2000/svg" p-id="14435" xmlns:xlink="http://www.w3.org/1999/xlink" width="200" height="200"><defs><style type="text/css"></style></defs><path d="M988.69 926.896H35.31V97.104a17.658 17.658 0 0 1 17.656-17.656h918.068a17.658 17.658 0 0 1 17.656 17.656v829.792z" fill="#B9785F" p-id="14436"></path><path d="M988.69 360.41c-3.618 0.9-7.34 1.52-11.236 1.52-25.706 0-46.546-20.84-46.546-46.546 0 25.704-20.84 46.546-46.546 46.546s-46.546-20.84-46.546-46.546c0 25.704-20.838 46.546-46.546 46.546-25.706 0-46.546-20.84-46.546-46.546 0 25.704-20.84 46.546-46.546 46.546s-46.546-20.84-46.546-46.546c0 25.704-20.84 46.546-46.546 46.546s-46.546-20.84-46.546-46.546c0 25.704-20.838 46.546-46.546 46.546s-46.546-20.84-46.546-46.546c0 25.704-20.84 46.546-46.546 46.546s-46.546-20.84-46.546-46.546c0 25.704-20.838 46.546-46.546 46.546-25.706 0-46.546-20.84-46.546-46.546 0 25.704-20.84 46.546-46.546 46.546s-46.546-20.84-46.546-46.546c0 25.704-20.84 46.546-46.546 46.546s-46.546-20.84-46.546-46.546c0 25.704-20.838 46.546-46.546 46.546-3.896 0-7.618-0.62-11.236-1.52v35.696c3.708 0.514 7.388 1.136 11.236 1.136 17.278 0 33.322-5.38 46.546-14.554a81.426 81.426 0 0 0 46.55 14.552c17.278 0 33.322-5.38 46.546-14.554 13.224 9.174 29.268 14.554 46.546 14.554s33.322-5.38 46.546-14.554a81.396 81.396 0 0 0 46.546 14.554c17.278 0 33.322-5.38 46.546-14.554a81.396 81.396 0 0 0 46.546 14.554c17.278 0 33.322-5.38 46.546-14.554 13.222 9.174 29.266 14.554 46.544 14.554s33.322-5.38 46.546-14.554a81.396 81.396 0 0 0 46.546 14.554c17.278 0 33.322-5.38 46.546-14.554a81.396 81.396 0 0 0 46.546 14.554c17.278 0 33.322-5.38 46.546-14.554 13.224 9.174 29.268 14.554 46.546 14.554s33.322-5.38 46.546-14.554a81.396 81.396 0 0 0 46.546 14.554c17.28 0 33.322-5.38 46.546-14.554a81.396 81.396 0 0 0 46.546 14.554c3.846 0 7.528-0.62 11.236-1.136v-35.694h-0.002z" fill="#AA6455" p-id="14437"></path><path d="M123.586 432.552h494.344v317.794H123.586z" fill="#B4E1FA" p-id="14438"></path><path d="M529.656 732.69h-35.312L282.482 450.206h35.312z" fill="#DAF0FD" p-id="14439"></path><path d="M418.908 361.932c-25.706 0-46.546-20.84-46.546-46.546v-41.73h93.092v41.73c0 25.706-20.84 46.546-46.546 46.546zM605.092 361.932c-25.706 0-46.546-20.84-46.546-46.546v-41.73h93.092v41.73c-0.002 25.706-20.84 46.546-46.546 46.546zM232.728 361.932c-25.706 0-46.546-20.84-46.546-46.546v-41.73h93.092v41.73c-0.002 25.706-20.84 46.546-46.546 46.546zM46.546 361.932C20.84 361.932 0 341.092 0 315.386v-41.73h93.092v41.73c0 25.706-20.84 46.546-46.546 46.546zM791.272 361.932c-25.706 0-46.546-20.84-46.546-46.546v-41.73h93.092v41.73c0 25.706-20.838 46.546-46.546 46.546z" fill="#D2555A" p-id="14440"></path><path d="M325.818 361.932c-25.706 0-46.546-20.84-46.546-46.546v-41.73h93.092v41.73c0 25.706-20.838 46.546-46.546 46.546zM698.182 361.932c-25.706 0-46.546-20.84-46.546-46.546v-41.73h93.092v41.73c-0.002 25.706-20.84 46.546-46.546 46.546z" fill="#C7CFE2" p-id="14441"></path><path d="M977.454 361.932c-25.706 0-46.546-20.84-46.546-46.546v-41.73H1024v41.73c0 25.706-20.84 46.546-46.546 46.546z" fill="#D2555A" p-id="14442"></path><path d="M884.364 361.932c-25.706 0-46.546-20.84-46.546-46.546v-41.73h93.092v41.73c-0.002 25.706-20.842 46.546-46.546 46.546zM139.636 361.932c-25.706 0-46.546-20.84-46.546-46.546v-41.73h93.092v41.73c0 25.706-20.84 46.546-46.546 46.546zM512 361.932c-25.706 0-46.546-20.84-46.546-46.546v-41.73h93.092v41.73c0 25.706-20.84 46.546-46.546 46.546z" fill="#C7CFE2" p-id="14443"></path><path d="M465.454 273.656h-93.09l9.63-141.242h86.672zM651.636 273.656h-93.09l-3.212-141.242h86.672zM279.272 273.656H186.182l22.47-141.242h86.67zM93.092 273.656H0l35.31-141.242h86.672zM837.818 273.656h-93.092l-16.048-141.242h86.668z" fill="#FF6464" p-id="14444"></path><path d="M372.364 273.656h-93.092l16.05-141.242h86.672zM744.726 273.656h-93.09l-9.63-141.242h86.672z" fill="#EFF2FA" p-id="14445"></path><path d="M1024 273.656h-93.092l-28.89-141.242h86.672z" fill="#FF6464" p-id="14446"></path><path d="M930.908 273.656h-93.09l-22.472-141.242h86.672zM186.182 273.656H93.092l28.89-141.242h86.67zM558.546 273.656h-93.092l3.212-141.242h86.668z" fill="#EFF2FA" p-id="14447"></path><path d="M1006.344 944.552H17.656a17.658 17.658 0 0 1 0-35.312h988.69a17.658 17.658 0 0 1 17.656 17.656 17.66 17.66 0 0 1-17.658 17.656z" fill="#C7CFE2" p-id="14448"></path><path d="M35.31 873.932h953.38v35.31H35.31z" fill="#AFB9D2" p-id="14449"></path><path d="M35.31 803.31h953.38v70.62H35.31z" fill="#AA6455" p-id="14450"></path><path d="M600.276 450.206v282.482H141.242V450.206h459.034m17.656-35.31H123.586a17.658 17.658 0 0 0-17.656 17.656v317.794a17.658 17.658 0 0 0 17.656 17.656h494.344a17.658 17.658 0 0 0 17.656-17.656V432.552a17.656 17.656 0 0 0-17.654-17.656zM900.414 414.896h-176.552a17.658 17.658 0 0 0-17.656 17.656v441.38h211.862v-441.38a17.656 17.656 0 0 0-17.654-17.656z" fill="#5B5D6E" p-id="14451"></path><path d="M741.518 450.206h141.242v282.482h-141.242z" fill="#B4E1FA" p-id="14452"></path><path d="M141.242 450.206h459.034v35.31H141.242zM741.518 450.206h141.242v35.31h-141.242z" fill="#A0D2F0" p-id="14453"></path><path d="M459.034 732.69h-70.62L176.552 450.206h70.62z" fill="#A0D2F0" p-id="14454"></path><path d="M344.276 485.518l-26.482-35.312h-35.312l26.484 35.312z" fill="#B4E1FA" p-id="14455"></path><path d="M882.758 591.448l-105.93-141.242h-35.31l141.24 188.324z" fill="#DAF0FD" p-id="14456"></path><path d="M803.31 485.518l-26.482-35.312h-35.31L768 485.518z" fill="#B4E1FA" p-id="14457"></path><path d="M741.518 450.206h141.242v35.31h-141.242z" fill="#A0D2F0" p-id="14458"></path><path d="M882.758 591.448l-105.93-141.242h-35.31l141.24 188.324z" fill="#DAF0FD" p-id="14459"></path><path d="M741.518 497.288v94.16l105.93 141.242h35.31v-47.082z" fill="#A0D2F0" p-id="14460"></path></svg>